# xmcd
#
# Track frame offsets:
#	150
#	16485
#	31799
#	45795
#
# Disc length: 965 seconds
#
# Revision: 2
# Processed by: cddbd v1.5.2PL0 Copyright (c) Steve Scherf et al.
# Submitted via: EZCDDA 4.3.2
#
DISCID=1e03c304
DTITLE=Colbie Caillat - Fallin' for you
DYEAR=1900
DGENRE=
TTITLE0=Fallin' for you
TTITLE1=Hoy me voy ft. Juanes
TTITLE2=Something special
TTITLE3=Turn your lights down low (live)
EXTD=
EXTT0=
EXTT1=
EXTT2=
EXTT3=
PLAYORDER=
